<?xml version="1.0" encoding="iso-8859-1"?>
<!-- Generator: Adobe Illustrator 16.0.0, SVG Export Plug-In . SVG Version: 6.00 Build 0)  -->
<!DOCTYPE svg PUBLIC "-//W3C//DTD SVG 1.1//EN" "http://www.w3.org/Graphics/SVG/1.1/DTD/svg11.dtd">
<svg version="1.1" id="Capa_1" xmlns="http://www.w3.org/2000/svg" xmlns:xlink="http://www.w3.org/1999/xlink" x="0px" y="0px"
	 width="605.942px" height="605.942px" viewBox="0 0 605.942 605.942" style="enable-background:new 0 0 605.942 605.942;"
	 xml:space="preserve">
<g>
	<g>
		<path d="M435.099,0c-45.632,0-88.544,17.777-120.822,50.055L50.036,314.276c-66.603,66.622-66.603,175.018,0,241.64
			c32.269,32.259,75.171,50.026,120.808,50.026s88.544-17.768,120.812-50.026l19.757-19.751l-12.321,0.588
			c-0.062,0.005-0.728,0.033-1.889,0.033c-5.709,0-25.776-0.746-44.309-10.312l-2.815-1.454l-2.43,2.027
			c-21.425,17.915-48.706,27.779-76.806,27.779c-32.034,0-62.118-12.432-84.714-35.009c-22.592-22.591-35.037-52.68-35.037-84.724
			s12.445-62.127,35.037-84.724L350.37,86.149c22.592-22.591,52.685-35.037,84.729-35.037c32.04,0,62.128,12.446,84.724,35.037
			c46.666,46.703,46.666,122.696,0.005,169.399L354.798,420.19c-8.291,8.306-19.771,12.881-32.331,12.881
			c-13.641,0-26.847-5.394-36.242-14.808c-9.018-9.008-14.181-21.563-14.176-34.463c0-12.604,4.776-24.304,13.431-32.938
			L432.541,204.36l-36.099-36.094L249.366,314.75c-18.479,18.479-28.539,43.284-28.334,69.84
			c0.206,26.444,10.538,51.222,29.09,69.772c18.871,18.867,45.226,29.687,72.321,29.687c26.244,0,50.566-9.863,68.486-27.765
			l164.986-164.628c66.589-66.631,66.589-175.018,0-241.601C523.643,17.777,480.731,0,435.099,0z"/>
	</g>
</g>
<g>
</g>
<g>
</g>
<g>
</g>
<g>
</g>
<g>
</g>
<g>
</g>
<g>
</g>
<g>
</g>
<g>
</g>
<g>
</g>
<g>
</g>
<g>
</g>
<g>
</g>
<g>
</g>
<g>
</g>
</svg>
